<svg width="1800" height="600" viewBox="0 0 1800 600" fill="none" xmlns="http://www.w3.org/2000/svg" role="img" aria-labelledby="title desc">
  <title id="title">Codex Agent Playbook</title>
  <desc id="desc">A futuristic hero banner for Codex Agent Playbook, showing planning, orchestration, delegation, and delivery workflows.</desc>
  <defs>
    <radialGradient id="bgGlow" cx="50%" cy="55%" r="70%">
      <stop offset="0" stop-color="#17235F" stop-opacity="0.95"/>
      <stop offset="0.45" stop-color="#071126" stop-opacity="1"/>
      <stop offset="1" stop-color="#020611" stop-opacity="1"/>
    </radialGradient>
    <linearGradient id="border" x1="40" y1="40" x2="1760" y2="560">
      <stop stop-color="#7C3AED"/>
      <stop offset="0.42" stop-color="#38BDF8"/>
      <stop offset="1" stop-color="#22D3EE"/>
    </linearGradient>
    <linearGradient id="titleGrad" x1="530" y1="95" x2="1260" y2="310">
      <stop stop-color="#FFFFFF"/>
      <stop offset="0.5" stop-color="#DDEBFF"/>
      <stop offset="1" stop-color="#A5B4FC"/>
    </linearGradient>
    <linearGradient id="playbookGrad" x1="620" y1="210" x2="1220" y2="370">
      <stop stop-color="#38BDF8"/>
      <stop offset="0.54" stop-color="#6366F1"/>
      <stop offset="1" stop-color="#A855F7"/>
    </linearGradient>
    <linearGradient id="panel" x1="0" y1="0" x2="1" y2="1">
      <stop stop-color="#101936" stop-opacity="0.95"/>
      <stop offset="1" stop-color="#050A18" stop-opacity="0.98"/>
    </linearGradient>
    <filter id="softGlow" x="-50%" y="-50%" width="200%" height="200%">
      <feGaussianBlur stdDeviation="7" result="blur"/>
      <feMerge>
        <feMergeNode in="blur"/>
        <feMergeNode in="SourceGraphic"/>
      </feMerge>
    </filter>
    <pattern id="grid" width="28" height="28" patternUnits="userSpaceOnUse">
      <path d="M 28 0 L 0 0 0 28" fill="none" stroke="#2DD4BF" stroke-opacity="0.08" stroke-width="1"/>
      <circle cx="2" cy="2" r="1" fill="#60A5FA" opacity="0.18"/>
    </pattern>
  </defs>

  <rect width="1800" height="600" fill="url(#bgGlow)"/>
  <rect width="1800" height="600" fill="url(#grid)" opacity="0.65"/>

  <path d="M42 42 L83 8 H1717 L1758 42 V558 L1717 592 H83 L42 558 Z" stroke="url(#border)" stroke-width="2.5" opacity="0.9"/>
  <path d="M625 564 C800 520 1020 520 1175 564" stroke="#38BDF8" stroke-opacity="0.34"/>
  <path d="M710 540 C865 505 980 505 1110 540" stroke="#8B5CF6" stroke-opacity="0.22"/>

  <g opacity="0.88">
    <path d="M255 130 C355 130 335 224 425 224" stroke="#2563EB" stroke-width="2"/>
    <path d="M255 240 C348 240 344 260 425 260" stroke="#38BDF8" stroke-width="2"/>
    <path d="M255 350 C352 350 338 302 425 302" stroke="#7C3AED" stroke-width="2"/>
    <path d="M255 460 C360 460 337 336 425 336" stroke="#60A5FA" stroke-width="2"/>
    <circle cx="425" cy="260" r="4" fill="#38BDF8" filter="url(#softGlow)"/>
  </g>

  <g>
    <rect x="76" y="82" width="220" height="86" rx="18" fill="url(#panel)" stroke="#7C3AED" stroke-width="1.5"/>
    <circle cx="112" cy="125" r="17" stroke="#22D3EE" stroke-width="2"/>
    <path d="M112 99V112M112 138V151M86 125H99M125 125H138" stroke="#22D3EE" stroke-width="2"/>
    <text x="150" y="118" fill="white" font-family="Inter,Segoe UI,Arial" font-size="18" font-weight="700">Plan</text>
    <text x="150" y="142" fill="#AAB7D9" font-family="Inter,Segoe UI,Arial" font-size="13">Define goals and strategy</text>

    <rect x="76" y="206" width="220" height="86" rx="18" fill="url(#panel)" stroke="#2563EB" stroke-width="1.5"/>
    <path d="M112 232v28M96 260h32M96 260v14M128 260v14M112 232h24v14" stroke="#22D3EE" stroke-width="2"/>
    <text x="150" y="242" fill="white" font-family="Inter,Segoe UI,Arial" font-size="18" font-weight="700">Orchestrate</text>
    <text x="150" y="266" fill="#AAB7D9" font-family="Inter,Segoe UI,Arial" font-size="13">Break work into sequence</text>

    <rect x="76" y="330" width="220" height="86" rx="18" fill="url(#panel)" stroke="#7C3AED" stroke-width="1.5"/>
    <circle cx="105" cy="364" r="12" stroke="#38BDF8" stroke-width="2"/>
    <circle cx="124" cy="364" r="12" stroke="#38BDF8" stroke-width="2" opacity="0.72"/>
    <path d="M88 390c4-14 40-14 44 0" stroke="#38BDF8" stroke-width="2"/>
    <text x="150" y="366" fill="white" font-family="Inter,Segoe UI,Arial" font-size="18" font-weight="700">Delegate</text>
    <text x="150" y="390" fill="#AAB7D9" font-family="Inter,Segoe UI,Arial" font-size="13">Use specialist subagents</text>

    <rect x="76" y="454" width="220" height="86" rx="18" fill="url(#panel)" stroke="#2563EB" stroke-width="1.5"/>
    <circle cx="112" cy="497" r="18" stroke="#8B5CF6" stroke-width="2"/>
    <path d="M103 497l7 7 15-17" stroke="#22D3EE" stroke-width="3"/>
    <text x="150" y="490" fill="white" font-family="Inter,Segoe UI,Arial" font-size="18" font-weight="700">Deliver</text>
    <text x="150" y="514" fill="#AAB7D9" font-family="Inter,Segoe UI,Arial" font-size="13">Implement, test, ship</text>
  </g>

  <g filter="url(#softGlow)">
    <path d="M470 220 L522 250 V310 L470 340 L418 310 V250 Z" fill="#0B1230" stroke="#60A5FA" stroke-width="2"/>
    <path d="M470 248 L482 284 L518 296 L482 308 L470 344 L458 308 L422 296 L458 284 Z" fill="#60A5FA"/>
  </g>

  <text x="900" y="188" text-anchor="middle" fill="url(#titleGrad)" font-family="Inter,Segoe UI,Arial" font-size="106" font-weight="900" letter-spacing="-4">Codex Agent</text>
  <text x="900" y="322" text-anchor="middle" fill="url(#playbookGrad)" font-family="Inter,Segoe UI,Arial" font-size="122" font-weight="900" letter-spacing="-4">Playbook</text>
  <path d="M710 372 H1090" stroke="#60A5FA" stroke-width="2" opacity="0.8"/>
  <path d="M900 360 L910 372 L900 384 L890 372 Z" fill="#A78BFA" filter="url(#softGlow)"/>
  <text x="900" y="426" text-anchor="middle" fill="#D8E2FF" font-family="Inter,Segoe UI,Arial" font-size="27" font-weight="600">Custom instructions, subagents, skills,</text>
  <text x="900" y="462" text-anchor="middle" fill="#D8E2FF" font-family="Inter,Segoe UI,Arial" font-size="27" font-weight="600">and reference docs for production-grade AI coding agents</text>

  <g>
    <rect x="535" y="496" width="730" height="56" rx="17" fill="#071126" fill-opacity="0.86" stroke="#1D4ED8" stroke-opacity="0.55"/>
    <text x="618" y="532" fill="#F8FAFC" font-family="Inter,Segoe UI,Arial" font-size="20" font-weight="700">Plan</text>
    <text x="760" y="532" fill="#F8FAFC" font-family="Inter,Segoe UI,Arial" font-size="20" font-weight="700">Orchestrate</text>
    <text x="968" y="532" fill="#F8FAFC" font-family="Inter,Segoe UI,Arial" font-size="20" font-weight="700">Delegate</text>
    <text x="1132" y="532" fill="#F8FAFC" font-family="Inter,Segoe UI,Arial" font-size="20" font-weight="700">Deliver</text>
    <path d="M705 508v32M890 508v32M1080 508v32" stroke="#334155"/>
    <rect x="580" y="512" width="32" height="26" rx="4" stroke="#22D3EE" stroke-width="2"/>
    <path d="M588 525h13M588 520l4 4-4 4" stroke="#22D3EE" stroke-width="2"/>
    <path d="M738 516v20M720 536h36M720 536v8M756 536v8M738 516h20v10" stroke="#38BDF8" stroke-width="2"/>
    <circle cx="932" cy="522" r="10" stroke="#8B5CF6" stroke-width="2"/>
    <circle cx="950" cy="522" r="10" stroke="#8B5CF6" stroke-width="2" opacity="0.7"/>
    <path d="M919 542c4-12 38-12 43 0" stroke="#8B5CF6" stroke-width="2"/>
    <path d="M1108 511h26l12 12v26h-38z" stroke="#A855F7" stroke-width="2"/>
    <path d="M1134 511v13h12" stroke="#A855F7" stroke-width="2"/>
  </g>

  <g>
    <rect x="1340" y="86" width="178" height="388" rx="20" fill="url(#panel)" stroke="#2563EB" stroke-opacity="0.75"/>
    <text x="1362" y="122" fill="#38BDF8" font-family="Inter,Segoe UI,Arial" font-size="18" font-weight="800" letter-spacing="1">SUBAGENTS</text>
    <g fill="white" font-family="Inter,Segoe UI,Arial">
      <text x="1410" y="172" font-size="16" font-weight="700">Planner</text>
      <text x="1410" y="194" font-size="12" fill="#9FB0D2">Creates and refines plans</text>
      <text x="1410" y="244" font-size="16" font-weight="700">Engineer</text>
      <text x="1410" y="266" font-size="12" fill="#9FB0D2">Writes clear, reliable code</text>
      <text x="1410" y="316" font-size="16" font-weight="700">Reviewer</text>
      <text x="1410" y="338" font-size="12" fill="#9FB0D2">Reviews for quality</text>
      <text x="1410" y="388" font-size="16" font-weight="700">Tester</text>
      <text x="1410" y="410" font-size="12" fill="#9FB0D2">Validates with checks</text>
      <text x="1410" y="454" font-size="16" font-weight="700">Docs</text>
    </g>
    <path d="M1364 205h130M1364 278h130M1364 350h130M1364 422h130" stroke="#1E3A8A" opacity="0.7"/>
    <path d="M1376 158v22M1364 180h28M1364 180v12M1392 180v12" stroke="#22D3EE" stroke-width="2"/>
    <path d="M1368 240l10-10M1378 250l-10-10M1388 230l-10 10M1378 250l10-10" stroke="#38BDF8" stroke-width="2"/>
    <circle cx="1378" cy="307" r="10" stroke="#22D3EE" stroke-width="2"/>
    <path d="M1385 314l12 12" stroke="#22D3EE" stroke-width="2"/>
    <rect x="1366" y="374" width="24" height="24" rx="3" stroke="#38BDF8" stroke-width="2"/>
    <path d="M1372 386l5 5 10-12" stroke="#38BDF8" stroke-width="2"/>
    <path d="M1368 434h18l10 10v28h-28z" stroke="#22D3EE" stroke-width="2"/>
  </g>

  <g opacity="0.84">
    <rect x="1548" y="92" width="214" height="198" rx="18" fill="#071126" stroke="#22D3EE" stroke-opacity="0.7"/>
    <circle cx="1570" cy="112" r="4" fill="#60A5FA" opacity="0.6"/>
    <circle cx="1584" cy="112" r="4" fill="#60A5FA" opacity="0.45"/>
    <circle cx="1598" cy="112" r="4" fill="#60A5FA" opacity="0.3"/>
    <rect x="1570" y="148" width="92" height="7" rx="3" fill="#0EA5E9" opacity="0.75"/>
    <rect x="1570" y="172" width="126" height="7" rx="3" fill="#38BDF8" opacity="0.55"/>
    <rect x="1590" y="196" width="138" height="7" rx="3" fill="#60A5FA" opacity="0.35"/>
    <rect x="1570" y="220" width="168" height="7" rx="3" fill="#8B5CF6" opacity="0.5"/>
    <rect x="1588" y="244" width="115" height="7" rx="3" fill="#38BDF8" opacity="0.38"/>

    <rect x="1562" y="320" width="220" height="184" rx="18" fill="#071126" stroke="#1D4ED8" stroke-opacity="0.45"/>
    <rect x="1586" y="358" width="72" height="7" rx="3" fill="#38BDF8" opacity="0.5"/>
    <rect x="1586" y="382" width="130" height="7" rx="3" fill="#60A5FA" opacity="0.42"/>
    <rect x="1608" y="406" width="108" height="7" rx="3" fill="#8B5CF6" opacity="0.42"/>
    <rect x="1586" y="430" width="160" height="7" rx="3" fill="#38BDF8" opacity="0.3"/>
    <rect x="1608" y="454" width="116" height="7" rx="3" fill="#60A5FA" opacity="0.32"/>
  </g>

  <path d="M1240 258 C1305 258 1275 154 1340 154" stroke="#38BDF8" stroke-width="1.5" stroke-dasharray="4 8" opacity="0.75"/>
  <path d="M1240 356 C1305 356 1275 404 1340 404" stroke="#8B5CF6" stroke-width="1.5" stroke-dasharray="4 8" opacity="0.75"/>
  <circle cx="1240" cy="258" r="4" fill="#38BDF8" filter="url(#softGlow)"/>
  <circle cx="1240" cy="356" r="4" fill="#8B5CF6" filter="url(#softGlow)"/>
</svg>
